<svg xmlns="http://www.w3.org/2000/svg" width="686" height="416" viewBox="0 0 686 416" role="img" aria-label="What 280 AI-generated apps are missing">
<style>text{font-family:ui-sans-serif,-apple-system,BlinkMacSystemFont,'Segoe UI',Helvetica,Arial,sans-serif}</style>
<text x="0" y="22" fill="#1f2328" font-size="15" font-weight="600">What 280 AI-generated apps are missing</text>
<text x="0" y="42" fill="#59636e" font-size="12">Share of repositories with at least one finding in the domain</text>
<line x1="210.0" y1="60" x2="210.0" y2="398" stroke="#d1d9e0" stroke-width="1"/>
<text x="210.0" y="54" fill="#59636e" font-size="10" text-anchor="middle">0%</text>
<line x1="310.0" y1="60" x2="310.0" y2="398" stroke="#d1d9e0" stroke-width="1"/>
<text x="310.0" y="54" fill="#59636e" font-size="10" text-anchor="middle">25%</text>
<line x1="410.0" y1="60" x2="410.0" y2="398" stroke="#d1d9e0" stroke-width="1"/>
<text x="410.0" y="54" fill="#59636e" font-size="10" text-anchor="middle">50%</text>
<line x1="510.0" y1="60" x2="510.0" y2="398" stroke="#d1d9e0" stroke-width="1"/>
<text x="510.0" y="54" fill="#59636e" font-size="10" text-anchor="middle">75%</text>
<line x1="610.0" y1="60" x2="610.0" y2="398" stroke="#d1d9e0" stroke-width="1"/>
<text x="610.0" y="54" fill="#59636e" font-size="10" text-anchor="middle">100%</text>
<text x="198" y="91" fill="#1f2328" font-size="12" text-anchor="end">Tests</text>
<rect x="210" y="74" width="400" height="20" rx="3" fill="#eef1f4"/>
<rect x="210" y="74" width="385.6" height="20" rx="3" fill="#0969da"/>
<text x="603.6" y="89" fill="#1f2328" font-size="12" font-weight="600">96.4%</text>
<text x="198" y="123" fill="#1f2328" font-size="12" text-anchor="end">AI rot</text>
<rect x="210" y="106" width="400" height="20" rx="3" fill="#eef1f4"/>
<rect x="210" y="106" width="355.6" height="20" rx="3" fill="#0969da"/>
<text x="573.6" y="121" fill="#1f2328" font-size="12" font-weight="600">88.9%</text>
<text x="198" y="155" fill="#1f2328" font-size="12" text-anchor="end">Observability</text>
<rect x="210" y="138" width="400" height="20" rx="3" fill="#eef1f4"/>
<rect x="210" y="138" width="311.6" height="20" rx="3" fill="#0969da"/>
<text x="529.6" y="153" fill="#1f2328" font-size="12" font-weight="600">77.9%</text>
<text x="198" y="187" fill="#1f2328" font-size="12" text-anchor="end">Reliability and the unhappy path</text>
<rect x="210" y="170" width="400" height="20" rx="3" fill="#eef1f4"/>
<rect x="210" y="170" width="308.4" height="20" rx="3" fill="#0969da"/>
<text x="526.4" y="185" fill="#1f2328" font-size="12" font-weight="600">77.1%</text>
<text x="198" y="219" fill="#1f2328" font-size="12" text-anchor="end">Deployment</text>
<rect x="210" y="202" width="400" height="20" rx="3" fill="#eef1f4"/>
<rect x="210" y="202" width="287.2" height="20" rx="3" fill="#0969da"/>
<text x="505.2" y="217" fill="#1f2328" font-size="12" font-weight="600">71.8%</text>
<text x="198" y="251" fill="#1f2328" font-size="12" text-anchor="end">Supply chain</text>
<rect x="210" y="234" width="400" height="20" rx="3" fill="#eef1f4"/>
<rect x="210" y="234" width="222.8" height="20" rx="3" fill="#0969da"/>
<text x="440.8" y="249" fill="#1f2328" font-size="12" font-weight="600">55.7%</text>
<text x="198" y="283" fill="#1f2328" font-size="12" text-anchor="end">Secrets and configuration</text>
<rect x="210" y="266" width="400" height="20" rx="3" fill="#eef1f4"/>
<rect x="210" y="266" width="208.4" height="20" rx="3" fill="#0969da"/>
<text x="426.4" y="281" fill="#1f2328" font-size="12" font-weight="600">52.1%</text>
<text x="198" y="315" fill="#1f2328" font-size="12" text-anchor="end">Cost and performance</text>
<rect x="210" y="298" width="400" height="20" rx="3" fill="#eef1f4"/>
<rect x="210" y="298" width="148.4" height="20" rx="3" fill="#0969da"/>
<text x="366.4" y="313" fill="#1f2328" font-size="12" font-weight="600">37.1%</text>
<text x="198" y="347" fill="#1f2328" font-size="12" text-anchor="end">Authentication and session</text>
<rect x="210" y="330" width="400" height="20" rx="3" fill="#eef1f4"/>
<rect x="210" y="330" width="82.8" height="20" rx="3" fill="#0969da"/>
<text x="300.8" y="345" fill="#1f2328" font-size="12" font-weight="600">20.7%</text>
<text x="198" y="379" fill="#1f2328" font-size="12" text-anchor="end">Data and access control</text>
<rect x="210" y="362" width="400" height="20" rx="3" fill="#eef1f4"/>
<rect x="210" y="362" width="58.4" height="20" rx="3" fill="#0969da"/>
<text x="276.4" y="377" fill="#1f2328" font-size="12" font-weight="600">14.6%</text>
</svg>
